# Blender v2.93.2 OBJ File: 'flashlight.blend'
# www.blender.org
mtllib flashlight.mtl
o flashlight_Cube.001
v -0.021132 -0.021132 0.174254
v -0.021132 0.021132 0.174254
v -0.033041 -0.033041 -0.230443
v -0.033041 0.033041 -0.230443
v 0.021132 -0.021132 0.174254
v 0.021132 0.021132 0.174254
v 0.033041 -0.033041 -0.230443
v 0.033041 0.033041 -0.230443
v -0.030799 -0.030799 -0.097185
v -0.030799 0.030799 -0.097185
v 0.030799 -0.030799 -0.097185
v 0.030799 0.030799 -0.097185
v -0.042688 0.042688 -0.147589
v -0.042688 0.042688 -0.230443
v -0.042688 -0.042688 -0.230443
v 0.042688 -0.042688 -0.230443
v 0.042688 0.042688 -0.230443
v 0.042688 -0.042688 -0.147589
v -0.042688 -0.042688 -0.147589
v 0.042688 0.042688 -0.147589
v -0.033041 0.033041 -0.217058
v -0.033041 -0.033041 -0.217058
v 0.033041 -0.033041 -0.217058
v 0.033041 0.033041 -0.217058
v -0.030799 -0.030799 0.144938
v 0.030799 0.030799 0.144938
v -0.030799 0.030799 0.144938
v 0.030799 -0.030799 0.144938
v -0.034208 -0.034208 0.149225
v -0.034208 -0.034208 0.171996
v -0.034208 0.034208 0.171996
v 0.034208 0.034208 0.149225
v 0.034208 0.034208 0.171996
v 0.034208 -0.034208 0.171996
v -0.034208 0.034208 0.149225
v 0.034208 -0.034208 0.149225
v -0.030799 0.030799 -0.069354
v 0.030799 -0.030799 -0.069354
v -0.030799 -0.030799 -0.069354
v 0.030799 0.030799 -0.069354
v -0.030799 -0.030799 0.127208
v 0.030799 0.030799 0.127208
v -0.030799 0.030799 0.127208
v 0.030799 -0.030799 0.127208
v -0.028679 0.028679 0.117633
v -0.028679 0.028679 -0.059779
v 0.028679 -0.028679 0.117633
v 0.028679 -0.028679 -0.059779
v 0.028679 0.028679 -0.059779
v -0.028679 -0.028679 -0.059779
v -0.028679 -0.028679 0.117633
v 0.028679 0.028679 0.117633
v -0.028679 0.028679 0.097920
v -0.028679 0.028679 0.078208
v -0.028679 0.028679 0.058496
v -0.028679 0.028679 0.038783
v -0.028679 0.028679 0.019071
v -0.028679 0.028679 -0.000642
v -0.028679 0.028679 -0.020354
v -0.028679 0.028679 -0.040066
v 0.028679 -0.028679 0.097920
v 0.028679 -0.028679 0.078208
v 0.028679 -0.028679 0.058496
v 0.028679 -0.028679 0.038783
v 0.028679 -0.028679 0.019071
v 0.028679 -0.028679 -0.000642
v 0.028679 -0.028679 -0.020354
v 0.028679 -0.028679 -0.040066
v -0.028679 -0.028679 -0.040066
v -0.028679 -0.028679 -0.020354
v -0.028679 -0.028679 -0.000642
v -0.028679 -0.028679 0.019071
v -0.028679 -0.028679 0.038783
v -0.028679 -0.028679 0.058496
v -0.028679 -0.028679 0.078208
v -0.028679 -0.028679 0.097920
v 0.028679 0.028679 -0.040066
v 0.028679 0.028679 -0.020354
v 0.028679 0.028679 -0.000642
v 0.028679 0.028679 0.019071
v 0.028679 0.028679 0.038783
v 0.028679 0.028679 0.058496
v 0.028679 0.028679 0.078208
v 0.028679 0.028679 0.097920
v -0.026901 0.026895 0.097920
v -0.026901 0.026895 0.078208
v -0.026901 0.026895 0.058496
v -0.026901 0.026895 0.038783
v -0.026901 0.026895 0.019071
v -0.026901 0.026895 -0.000642
v -0.026901 0.026895 -0.020354
v -0.026901 0.026895 -0.040066
v 0.026901 -0.026908 0.097920
v 0.026901 -0.026908 0.078208
v 0.026901 -0.026908 0.058496
v 0.026901 -0.026908 0.038783
v 0.026901 -0.026908 0.019071
v 0.026901 -0.026908 -0.000642
v 0.026901 -0.026908 -0.020354
v 0.026901 -0.026908 -0.040066
v -0.026901 -0.026908 -0.040066
v -0.026901 -0.026908 -0.020354
v -0.026901 -0.026908 -0.000642
v -0.026901 -0.026908 0.019071
v -0.026901 -0.026908 0.038783
v -0.026901 -0.026908 0.058496
v -0.026901 -0.026908 0.078208
v -0.026901 -0.026908 0.097920
v 0.026901 0.026895 -0.040066
v 0.026901 0.026895 -0.020354
v 0.026901 0.026895 -0.000642
v 0.026901 0.026895 0.019071
v 0.026901 0.026895 0.038783
v 0.026901 0.026895 0.058496
v 0.026901 0.026895 0.078208
v 0.026901 0.026895 0.097920
v 0.027670 0.027670 0.173139
v 0.027670 -0.027670 0.173139
v -0.027670 0.027670 0.173139
v -0.027670 -0.027670 0.173139
vt 0.166149 0.890365
vt 0.166149 0.745509
vt 0.187295 0.724363
vt 0.187295 0.911512
vt 0.999855 0.145002
vt 0.999855 0.289858
vt 0.970513 0.289858
vt 0.970513 0.145002
vt 0.323671 0.738961
vt 0.202181 0.738967
vt 0.187585 0.724398
vt 0.338242 0.724362
vt 0.899014 0.220630
vt 0.854429 0.069393
vt 0.867393 0.055021
vt 0.914414 0.219139
vt 0.896657 0.380778
vt 0.910623 0.382884
vt 0.021292 0.745509
vt 0.000145 0.724362
vt 0.284482 0.355928
vt 0.305642 0.491775
vt 0.197152 0.516798
vt 0.173730 0.360534
vt 0.348026 0.615261
vt 0.250790 0.677880
vt 0.362240 0.478743
vt 0.398733 0.598100
vt 0.087786 0.724072
vt 0.040188 0.556106
vt 0.000145 0.193632
vt 0.017536 0.000145
vt 0.205148 0.022668
vt 0.174237 0.198056
vt 0.008140 0.379560
vt 0.283028 0.211505
vt 0.307386 0.067843
vt 0.021291 0.890365
vt 0.000145 0.911512
vt 0.999855 0.434715
vt 0.970513 0.434715
vt 0.999855 0.000145
vt 0.970513 0.000145
vt 0.999855 0.579572
vt 0.970513 0.579572
vt 0.202156 0.860457
vt 0.323646 0.860451
vt 0.338242 0.875020
vt 0.187585 0.875056
vt 0.856294 0.225496
vt 0.820330 0.078900
vt 0.823701 0.516501
vt 0.853214 0.375789
vt 0.865636 0.531089
vt 0.970223 0.210227
vt 0.970223 0.386503
vt 0.876912 0.535617
vt 0.932098 0.552558
vt 0.924156 0.039688
vt 0.856438 0.699324
vt 0.802286 0.668241
vt 0.796322 0.657195
vt 0.348239 0.217374
vt 0.347189 0.352484
vt 0.374075 0.077479
vt 0.369896 0.219706
vt 0.368888 0.351780
vt 0.761565 0.638351
vt 0.831009 0.228196
vt 0.797531 0.089923
vt 0.394384 0.085656
vt 0.745844 0.625493
vt 0.802433 0.509176
vt 0.422152 0.465596
vt 0.452121 0.576822
vt 0.417454 0.587432
vt 0.383038 0.474516
vt 0.775121 0.370772
vt 0.784551 0.234689
vt 0.828805 0.372934
vt 0.753228 0.496832
vt 0.756145 0.098530
vt 0.309155 0.753514
vt 0.309095 0.845935
vt 0.216672 0.845905
vt 0.216732 0.753484
vt 0.449970 0.095413
vt 0.419734 0.222706
vt 0.468735 0.354195
vt 0.474840 0.465255
vt 0.471714 0.465345
vt 0.464629 0.354121
vt 0.477257 0.231928
vt 0.481221 0.096339
vt 0.541173 0.101984
vt 0.522369 0.230185
vt 0.720167 0.360340
vt 0.724043 0.234004
vt 0.728945 0.234161
vt 0.723312 0.360679
vt 0.577351 0.236352
vt 0.574489 0.101243
vt 0.635271 0.105104
vt 0.621970 0.233712
vt 0.417211 0.349312
vt 0.420329 0.349299
vt 0.426448 0.465048
vt 0.677723 0.238296
vt 0.667851 0.102945
vt 0.727673 0.103748
vt 0.667396 0.361702
vt 0.663276 0.361263
vt 0.672870 0.238173
vt 0.779370 0.234908
vt 0.751756 0.105138
vt 0.518831 0.349888
vt 0.515471 0.459314
vt 0.617546 0.353513
vt 0.626703 0.234043
vt 0.620496 0.353736
vt 0.565518 0.465026
vt 0.567810 0.356195
vt 0.606233 0.463124
vt 0.730876 0.107147
vt 0.656644 0.474355
vt 0.699555 0.476640
vt 0.563807 0.355940
vt 0.572587 0.236125
vt 0.662704 0.108871
vt 0.527096 0.230590
vt 0.521770 0.349996
vt 0.455411 0.571054
vt 0.638195 0.108712
vt 0.702056 0.602291
vt 0.472437 0.231605
vt 0.677475 0.594806
vt 0.628575 0.581073
vt 0.476410 0.572533
vt 0.471958 0.568127
vt 0.601725 0.577685
vt 0.552065 0.571339
vt 0.569049 0.106910
vt 0.525443 0.571588
vt 0.424617 0.223291
vt 0.452408 0.099359
vt 0.475486 0.101755
vt 0.543943 0.105709
vt 0.519616 0.459279
vt 0.562442 0.464777
vt 0.610412 0.463497
vt 0.653502 0.473770
vt 0.703921 0.477504
vt 0.770550 0.370122
vt 0.749867 0.495713
vt 0.699898 0.595831
vt 0.683185 0.590896
vt 0.625387 0.575449
vt 0.606590 0.573172
vt 0.548273 0.566338
vt 0.529618 0.566568
vt 0.483389 0.724362
vt 0.483389 0.869219
vt 0.338532 0.869219
vt 0.338532 0.724362
vn 0.0000 0.0000 -1.0000
vn -1.0000 0.0000 0.0000
vn -0.1722 0.0000 0.9851
vn 0.0000 0.7827 -0.6224
vn 0.7827 0.0000 -0.6224
vn 0.0000 -0.9733 0.2296
vn -0.9733 0.0000 0.2296
vn 0.0000 1.0000 0.0000
vn 0.0000 -1.0000 0.0000
vn 1.0000 0.0000 0.0000
vn 0.9733 0.0000 0.2296
vn 0.0000 0.9733 0.2296
vn 0.1722 0.0000 0.9851
vn 0.0000 -0.1722 0.9851
vn 0.0000 -0.7827 -0.6224
vn -0.7827 0.0000 -0.6224
vn 0.0000 0.1722 0.9851
vn 0.9764 0.0000 0.2162
vn 0.0000 0.9764 -0.2162
vn 0.0000 0.9764 0.2162
vn -0.9764 0.0000 -0.2162
vn 0.9764 0.0000 -0.2162
vn -0.9764 -0.0000 0.2162
vn -0.0000 -0.9764 0.2162
vn 0.0000 -0.9764 -0.2162
vn 0.0000 0.0000 1.0000
vn 0.0000 0.1680 0.9858
vn 0.0000 -0.1680 0.9858
vn 0.1680 0.0000 0.9858
vn -0.1680 0.0000 0.9858
usemtl Plastic
s off
f 3/1/1 7/2/1 16/3/1 15/4/1
f 8/5/2 7/6/2 23/7/2 24/8/2
f 120/9/3 119/10/3 31/11/3 30/12/3
f 26/13/4 27/14/4 35/15/4 32/16/4
f 28/17/5 26/13/5 32/16/5 36/18/5
f 7/2/1 8/19/1 17/20/1 16/3/1
f 11/21/6 9/22/6 19/23/6 18/24/6
f 9/22/7 10/25/7 13/26/7 19/23/7
f 39/27/2 37/28/2 10/25/2 9/22/2
f 19/23/2 13/26/2 14/29/2 15/30/2
f 17/31/8 14/32/8 13/33/8 20/34/8
f 15/30/9 16/35/9 18/24/9 19/23/9
f 16/35/10 17/31/10 20/34/10 18/24/10
f 12/36/11 11/21/11 18/24/11 20/34/11
f 10/37/12 12/36/12 20/34/12 13/33/12
f 8/19/1 4/38/1 14/39/1 17/20/1
f 4/38/1 3/1/1 15/4/1 14/39/1
f 7/6/8 3/40/8 22/41/8 23/7/8
f 4/42/9 8/5/9 24/8/9 21/43/9
f 3/40/10 4/44/10 21/45/10 22/41/10
f 117/46/13 118/47/13 34/48/13 33/49/13
f 42/50/8 43/51/8 27/14/8 26/13/8
f 41/52/9 44/53/9 28/17/9 25/54/9
f 44/53/10 42/50/10 26/13/10 28/17/10
f 36/18/10 32/16/10 33/55/10 34/56/10
f 29/57/9 36/18/9 34/56/9 30/58/9
f 32/16/8 35/15/8 31/59/8 33/55/8
f 30/58/2 31/60/2 35/61/2 29/57/2
f 118/47/14 120/9/14 30/12/14 34/48/14
f 25/54/15 28/17/15 36/18/15 29/57/15
f 27/62/16 25/54/16 29/57/16 35/61/16
f 119/10/17 117/46/17 33/49/17 31/11/17
f 11/21/10 12/36/10 40/63/10 38/64/10
f 9/22/9 11/21/9 38/64/9 39/27/9
f 12/36/8 10/37/8 37/65/8 40/63/8
f 38/64/18 40/63/18 49/66/18 48/67/18
f 25/54/2 27/62/2 43/68/2 41/52/2
f 43/51/19 42/50/19 52/69/19 45/70/19
f 40/63/20 37/65/20 46/71/20 49/66/20
f 41/52/21 43/68/21 45/72/21 51/73/21
f 69/74/2 60/75/2 46/76/2 50/77/2
f 61/78/10 84/79/10 52/69/10 47/80/10
f 76/81/9 61/78/9 47/80/9 51/73/9
f 84/79/8 53/82/8 45/70/8 52/69/8
f 42/50/22 44/53/22 47/80/22 52/69/22
f 37/28/23 39/27/23 50/77/23 46/76/23
f 39/27/24 38/64/24 48/67/24 50/77/24
f 44/53/25 41/52/25 51/73/25 47/80/25
f 1/83/26 5/84/26 6/85/26 2/86/26
f 49/66/8 46/71/8 60/87/8 77/88/8
f 67/89/1 70/90/1 102/91/1 99/92/1
f 78/93/8 59/94/8 58/95/8 79/96/8
f 62/97/26 83/98/26 115/99/26 94/100/26
f 80/101/8 57/102/8 56/103/8 81/104/8
f 69/74/26 68/105/26 100/106/26 101/107/26
f 82/108/8 55/109/8 54/110/8 83/98/8
f 82/108/1 63/111/1 95/112/1 114/113/1
f 50/77/9 48/67/9 68/105/9 69/74/9
f 53/82/1 84/79/1 116/114/1 85/115/1
f 70/90/9 67/89/9 66/116/9 71/117/9
f 64/118/26 81/104/26 113/119/26 96/120/26
f 72/121/9 65/122/9 64/118/9 73/123/9
f 83/98/26 54/110/26 86/124/26 115/99/26
f 74/125/9 63/111/9 62/97/9 75/126/9
f 80/101/1 65/122/1 97/127/1 112/128/1
f 48/67/10 49/66/10 77/88/10 68/105/10
f 55/109/1 82/108/1 114/113/1 87/129/1
f 67/89/10 78/93/10 79/96/10 66/116/10
f 66/116/26 79/96/26 111/130/26 98/131/26
f 65/122/10 80/101/10 81/104/10 64/118/10
f 60/75/26 69/74/26 101/107/26 92/132/26
f 63/111/10 82/108/10 83/98/10 62/97/10
f 81/104/26 56/103/26 88/133/26 113/119/26
f 51/73/2 45/72/2 53/134/2 76/81/2
f 78/93/1 67/89/1 99/92/1 110/135/1
f 75/126/2 54/136/2 55/137/2 74/125/2
f 70/90/1 59/138/1 91/139/1 102/91/1
f 73/123/2 56/140/2 57/141/2 72/121/2
f 57/102/1 80/101/1 112/128/1 89/142/1
f 71/117/2 58/143/2 59/138/2 70/90/2
f 68/105/26 77/88/26 109/144/26 100/106/26
f 109/144/8 92/145/8 91/146/8 110/135/8
f 111/130/8 90/147/8 89/142/8 112/128/8
f 113/119/8 88/133/8 87/129/8 114/113/8
f 115/99/8 86/124/8 85/115/8 116/114/8
f 101/107/9 100/106/9 99/92/9 102/91/9
f 103/148/9 98/131/9 97/127/9 104/149/9
f 105/150/9 96/120/9 95/112/9 106/151/9
f 107/152/9 94/100/9 93/153/9 108/154/9
f 100/106/10 109/144/10 110/135/10 99/92/10
f 98/131/10 111/130/10 112/128/10 97/127/10
f 96/120/10 113/119/10 114/113/10 95/112/10
f 94/100/10 115/99/10 116/114/10 93/153/10
f 108/154/2 85/155/2 86/156/2 107/152/2
f 106/151/2 87/157/2 88/158/2 105/150/2
f 104/149/2 89/159/2 90/160/2 103/148/2
f 102/91/2 91/139/2 92/132/2 101/107/2
f 84/79/1 61/78/1 93/153/1 116/114/1
f 71/117/26 66/116/26 98/131/26 103/148/26
f 76/81/1 53/134/1 85/155/1 108/154/1
f 65/122/1 72/121/1 104/149/1 97/127/1
f 54/136/26 75/126/26 107/152/26 86/156/26
f 73/123/26 64/118/26 96/120/26 105/150/26
f 74/125/1 55/137/1 87/157/1 106/151/1
f 63/111/1 74/125/1 106/151/1 95/112/1
f 77/88/26 60/87/26 92/145/26 109/144/26
f 56/140/26 73/123/26 105/150/26 88/158/26
f 75/126/26 62/97/26 94/100/26 107/152/26
f 59/94/1 78/93/1 110/135/1 91/146/1
f 72/121/1 57/141/1 89/159/1 104/149/1
f 61/78/1 76/81/1 108/154/1 93/153/1
f 79/96/26 58/95/26 90/147/26 111/130/26
f 58/143/26 71/117/26 103/148/26 90/160/26
f 2/86/27 6/85/27 117/46/27 119/10/27
f 5/84/28 1/83/28 120/9/28 118/47/28
f 6/85/29 5/84/29 118/47/29 117/46/29
f 1/83/30 2/86/30 119/10/30 120/9/30
usemtl Light
f 22/161/1 21/162/1 24/163/1 23/164/1
