# Blender v2.93.2 OBJ File: 'mapSet.blend'
# www.blender.org
mtllib wallSet_9.mtl
o wallSet_9_Cube.002
v -1.000000 0.200000 1.000000
v -1.000000 0.000001 1.000000
v -1.000000 0.200000 -1.000000
v -1.000000 0.000000 -1.000000
v 1.000000 0.000001 1.000000
v 1.000000 0.000000 -1.000000
v -1.000000 0.000001 0.800000
v -0.800000 0.200000 1.000000
v -0.800000 0.200000 0.800000
v 1.000000 0.200000 -1.000000
v 0.800000 0.200000 -1.000000
v 1.000000 0.000000 -0.799999
v 1.000000 0.000001 0.800000
v -0.800000 0.000001 1.000000
v -0.800000 0.000000 -1.000000
v -0.800000 0.000001 0.800000
v -0.800001 0.200000 -1.000000
v -1.000000 0.000000 -0.799999
v -0.800001 0.000000 -0.799999
v -0.800001 0.200000 -0.799999
v 0.800001 0.200000 -0.799999
v 0.800001 0.000001 1.000000
v 0.800001 0.000001 0.800000
v 0.800001 0.000000 -0.799999
v 0.800001 0.000000 -1.000000
v -1.000000 0.200000 0.800000
v 1.000000 0.200000 0.800000
v 1.000000 2.200000 1.000000
v -1.000000 2.200000 1.000000
v -1.000000 2.000000 1.000000
v -1.000000 2.200000 -1.000000
v -1.000000 2.000000 -1.000000
v 1.000000 2.000000 1.000000
v 1.000000 2.000000 -1.000000
v -1.000000 2.000000 0.800000
v -0.800000 2.200000 1.000000
v -0.800000 2.200000 0.800000
v 1.000000 2.200000 -1.000000
v 1.000000 2.200000 -0.799999
v -1.000000 2.200000 -0.799999
v 0.800000 2.200000 -1.000000
v 1.000000 2.000000 -0.800000
v 1.000000 2.000000 0.800000
v -0.800000 2.000000 1.000000
v -0.800000 2.000000 -1.000000
v -0.800000 2.000000 0.800000
v -0.800001 2.200000 -1.000000
v -1.000000 2.000000 -0.799999
v -0.800001 2.000000 -0.799999
v -0.800001 2.200000 -0.799999
v 0.800000 2.200000 -0.799999
v 0.800001 2.000000 1.000000
v 0.800001 2.000000 0.800000
v 0.800000 2.000000 -0.799999
v 0.800001 2.200000 0.800000
v 0.800000 2.000000 -1.000000
v -1.000000 2.200000 0.800000
v 1.000000 2.200000 0.800000
v 0.800001 2.200000 1.000000
v -1.000000 0.200000 -0.799999
v 1.000000 0.200000 -0.799999
v 0.800001 0.200000 1.000000
v 1.000000 0.200000 1.000000
v 0.800001 0.200000 0.800000
vt 0.112498 0.000000
vt 1.000000 0.000000
vt 1.000000 0.998440
vt 0.112498 0.998440
vt 0.001560 0.000000
vt 0.889062 0.000000
vt 0.889062 0.998439
vt 0.001560 0.998439
vt 0.257812 0.746094
vt 0.257812 0.758594
vt 0.270312 0.758594
vt 0.270312 0.746094
vt 0.000781 0.888282
vt 0.000780 0.000780
vt 0.111718 0.000780
vt 0.111718 0.888282
vt 0.406116 0.100789
vt 0.306313 0.100789
vt 0.306313 0.000986
vt 0.406116 0.000986
vt 0.000986 0.899210
vt 0.100789 0.899210
vt 0.100789 0.999013
vt 0.000986 0.999013
vt 0.304341 0.100789
vt 0.204538 0.100789
vt 0.204538 0.000986
vt 0.304341 0.000986
vt 0.202565 0.100789
vt 0.102762 0.100789
vt 0.102762 0.000986
vt 0.202565 0.000986
vt 0.202565 0.999013
vt 0.102762 0.999013
vt 0.102762 0.899211
vt 0.202565 0.899211
vt 0.899376 0.100624
vt 0.999220 0.100625
vt 0.999219 0.899376
vt 0.899376 0.899376
vt 0.000987 0.100789
vt 0.100789 0.100789
vt 0.304341 0.999013
vt 0.204538 0.999013
vt 0.204538 0.899210
vt 0.304341 0.899210
vt 0.257812 0.758594
vt 0.270312 0.758594
vt 0.270312 0.983594
vt 0.257812 0.983594
vt 0.000780 0.100625
vt 0.100624 0.100624
vt 0.100624 0.899376
vt 0.000780 0.899376
vt 0.000987 0.000986
vt 0.100790 0.000986
vt 0.999219 0.000780
vt 0.999219 0.888282
vt 0.495313 0.983594
vt 0.495313 0.996094
vt 0.270312 0.996094
vt 0.406116 0.999014
vt 0.306313 0.999014
vt 0.306313 0.899211
vt 0.406116 0.899211
vt 0.100624 0.000780
vt 0.899376 0.000780
vt 0.899376 0.999220
vt 0.100624 0.999220
vt 0.000780 0.999220
vt 0.000780 0.000780
vt 0.999219 0.999220
vt 0.999219 0.000780
vt 0.001560 0.998440
vt 0.001561 0.000000
vt 0.999219 0.999220
vt 0.111718 0.999220
vt 1.000000 0.998439
vt 1.000000 0.000000
vt 0.887582 0.998529
vt 0.000000 0.998529
vt 0.000000 0.000000
vt 0.887582 0.000000
vt 1.000000 0.998529
vt 0.112419 0.998529
vt 0.112419 0.000000
vt 1.000000 0.000000
vt 0.000780 0.899376
vt 0.000780 0.100625
vt 0.100624 0.100625
vt 0.100624 0.899376
vt 0.100624 0.999220
vt 0.899374 0.899376
vt 0.899374 0.999220
vt 0.406115 0.100789
vt 0.306313 0.100789
vt 0.306313 0.000986
vt 0.406115 0.000986
vt 0.102762 0.899209
vt 0.202565 0.899209
vt 0.202565 0.999012
vt 0.102762 0.999012
vt 0.899374 0.100624
vt 0.899374 0.000780
vt 0.999218 0.000780
vt 0.999218 0.100624
vt 0.100789 0.100789
vt 0.000986 0.100789
vt 0.000986 0.000986
vt 0.100789 0.000986
vt 0.304340 0.100789
vt 0.204538 0.100788
vt 0.204538 0.000986
vt 0.304340 0.000986
vt 0.304340 0.999013
vt 0.204537 0.999013
vt 0.204537 0.899211
vt 0.304340 0.899211
vt 0.999219 0.899376
vt 0.999219 0.999220
vt 0.102762 0.100789
vt 0.202565 0.100789
vt 0.000780 0.000781
vt 0.100624 0.000781
vt 0.100789 0.999014
vt 0.000986 0.999014
vt 0.000986 0.899211
vt 0.100789 0.899211
vt 0.102762 0.000986
vt 0.202565 0.000986
vt 0.406115 0.999013
vt 0.306313 0.999013
vt 0.306313 0.899211
vt 0.406115 0.899211
vt 0.111718 0.999220
vt 0.111718 0.111718
vt 0.999219 0.111718
vt 0.999219 0.999220
vt 0.000780 0.999220
vt 0.000780 0.111718
vt 0.000780 0.999220
vt 0.111718 0.000780
vt 0.999219 0.000780
vt 1.000000 0.110995
vt 1.000000 0.221991
vt 0.001041 0.221990
vt 0.001041 0.110995
vt 0.999099 0.776526
vt 0.999099 0.887537
vt 0.000000 0.887536
vt 0.000000 0.776526
vt 0.000901 0.593566
vt 1.000000 0.593566
vt 1.000000 0.704577
vt 0.000901 0.704577
vt 1.000000 0.482555
vt 0.000901 0.482555
vt 1.000000 0.000000
vt 0.001041 0.000000
vt 1.000000 0.332986
vt 0.001041 0.332986
vt 1.000000 0.371544
vt 0.000901 0.371545
vt 0.999099 0.665515
vt 0.000000 0.665515
vt 1.000000 0.443982
vt 0.001041 0.443981
vt 0.999099 0.998548
vt 0.000000 0.998547
vn -1.0000 -0.0000 0.0000
vn -0.0000 0.0000 -1.0000
vn -0.0000 1.0000 0.0000
vn -0.0000 -1.0000 0.0000
vn 1.0000 0.0000 0.0000
vn 0.0000 -0.0000 1.0000
usemtl Wall
s off
f 60/1/1 26/2/1 35/3/1 48/4/1
f 11/5/2 17/6/2 45/7/2 56/8/2
f 63/9/3 27/10/3 64/11/3 62/12/3
f 52/13/4 44/14/4 46/15/4 53/16/4
f 56/17/2 41/18/2 38/19/2 34/20/2
f 43/21/5 58/22/5 28/23/5 33/24/5
f 48/25/1 40/26/1 31/27/1 32/28/1
f 44/29/6 36/30/6 29/31/6 30/32/6
f 33/33/6 28/34/6 59/35/6 52/36/6
f 55/37/3 58/38/3 39/39/3 51/40/3
f 42/41/5 39/42/5 58/22/5 43/21/5
f 30/43/1 29/44/1 57/45/1 35/46/1
f 35/47/3 46/48/3 49/49/3 48/50/3
f 35/46/1 57/45/1 40/26/1 48/25/1
f 57/51/3 37/52/3 50/53/3 40/54/3
f 34/55/5 38/56/5 39/42/5 42/41/5
f 53/16/4 46/15/4 49/57/4 54/58/4
f 52/36/6 59/35/6 36/30/6 44/29/6
f 49/49/3 54/59/3 56/60/3 45/61/3
f 32/62/2 31/63/2 47/64/2 45/65/2
f 37/52/3 55/37/3 51/40/3 50/53/3
f 36/66/3 59/67/3 55/37/3 37/52/3
f 45/65/2 47/64/2 41/18/2 56/17/2
f 50/53/3 51/40/3 41/68/3 47/69/3
f 40/54/3 50/53/3 47/69/3 31/70/3
f 29/71/3 36/66/3 37/52/3 57/51/3
f 39/39/3 38/72/3 41/68/3 51/40/3
f 59/67/3 28/73/3 58/38/3 55/37/3
f 48/4/1 32/74/1 3/75/1 60/1/1
f 53/16/4 54/58/4 42/76/4 43/77/4
f 32/78/2 45/7/2 17/6/2 3/79/2
f 20/80/6 21/81/6 54/82/6 49/83/6
f 9/84/5 20/85/5 49/86/5 46/87/5
usemtl Floor
f 22/88/4 14/89/4 16/90/4 23/91/4
f 13/92/4 23/91/4 24/93/4 12/94/4
f 25/95/2 11/96/2 10/97/2 6/98/2
f 13/99/5 27/100/5 63/101/5 5/102/5
f 19/103/4 18/104/4 4/105/4 15/106/4
f 18/107/1 60/108/1 3/109/1 4/110/1
f 14/111/6 8/112/6 1/113/6 2/114/6
f 5/115/6 63/116/6 62/117/6 22/118/6
f 12/94/4 24/93/4 25/119/4 6/120/4
f 12/121/5 61/122/5 27/100/5 13/99/5
f 14/89/4 2/123/4 7/124/4 16/90/4
f 2/125/1 1/126/1 26/127/1 7/128/1
f 16/90/4 7/124/4 18/104/4 19/103/4
f 7/128/1 26/127/1 60/108/1 18/107/1
f 6/129/5 10/130/5 61/122/5 12/121/5
f 23/91/4 16/90/4 19/103/4 24/93/4
f 22/118/6 62/117/6 8/112/6 14/111/6
f 24/93/4 19/103/4 15/106/4 25/119/4
f 4/131/2 3/132/2 17/133/2 15/134/2
f 9/135/3 64/136/3 21/137/3 20/138/3
f 8/139/3 62/140/3 64/136/3 9/135/3
f 15/134/2 17/133/2 11/96/2 25/95/2
f 5/141/4 22/88/4 23/91/4 13/92/4
f 21/137/3 64/136/3 27/142/3 61/143/3
usemtl Beam
f 52/144/1 53/145/1 64/146/1 62/147/1
f 44/148/6 30/149/6 1/150/6 8/151/6
f 61/152/6 42/153/6 54/154/6 21/155/6
f 34/156/5 42/153/5 61/152/5 10/157/5
f 33/158/6 52/144/6 62/147/6 63/159/6
f 64/146/2 53/145/2 43/160/2 27/161/2
f 56/162/2 34/156/2 10/157/2 11/163/2
f 46/164/5 44/148/5 8/151/5 9/165/5
f 43/160/5 33/166/5 63/167/5 27/161/5
f 30/149/1 35/168/1 26/169/1 1/150/1
