# Blender v2.93.2 OBJ File: 'mapSet.blend'
# www.blender.org
mtllib wallSet_4.mtl
o wallSet_4_Cube.003
v 1.000000 -0.100000 -1.000000
v 1.000000 -0.100000 1.000000
v 0.800001 -0.100000 -1.000000
v 0.800000 -0.100000 -0.799999
v -1.000000 -0.100000 1.000000
v -0.800001 -0.100000 1.000000
v 0.800000 -0.100000 1.000000
v 0.800001 -0.100000 0.800000
v -0.800001 -0.100000 0.800000
v 1.000000 -0.100000 -0.799999
v -1.000000 -0.100000 -0.799999
v -1.000000 2.000000 -1.000000
v 1.000000 2.000000 -1.000000
v 1.000000 1.800000 -1.000000
v 1.000000 2.000000 1.000000
v 1.000000 1.800000 1.000000
v -1.000000 1.800000 -1.000000
v -1.000000 1.800000 1.000000
v 1.000000 1.800000 -0.799999
v 0.800001 2.000000 -1.000000
v 0.800000 2.000000 -0.800000
v -1.000000 2.000000 1.000000
v -1.000000 2.000000 0.800000
v 1.000000 2.000000 0.800000
v -0.800001 2.000000 1.000000
v -1.000000 1.800000 0.800000
v -1.000000 1.800000 -0.799999
v 0.800000 1.800000 -1.000000
v 0.800001 1.800000 1.000000
v 0.800001 1.800000 -0.800000
v 0.800000 2.000000 1.000000
v 1.000000 1.800000 0.800000
v 0.800001 1.800000 0.800000
v 0.800001 2.000000 0.800000
v -0.800001 2.000000 0.800000
v -0.800001 1.800000 -1.000000
v -0.800001 1.800000 -0.799999
v -0.800001 1.800000 0.800000
v -0.800001 2.000000 -0.799999
v -0.800000 1.800000 1.000000
v 1.000000 2.000000 -0.799999
v -1.000000 2.000000 -0.799999
v -0.800001 2.000000 -0.999999
v 1.000000 -0.100000 0.800000
v -1.000000 -0.100000 0.800000
v -0.800001 -0.100000 -1.000000
v -1.000000 -0.100000 -1.000000
v -0.800001 -0.100000 -0.799999
v 0.800001 0.000000 -1.000000
v 0.800000 0.000000 -0.799999
v 0.800001 0.000000 0.800000
v -0.800001 0.000000 0.800000
v 1.000000 0.000000 -0.799999
v -1.000000 0.000000 -0.799999
v 1.000000 0.000000 0.800000
v -1.000000 0.000000 0.800000
v -0.800001 0.000000 -1.000000
v -0.800001 0.000000 -0.799999
vt 0.000740 0.899408
vt 0.000740 0.100592
vt 0.100593 0.100592
vt 0.100593 0.899408
vt 0.100592 0.999260
vt 0.899408 0.899408
vt 0.899408 0.999260
vt 0.306313 0.899211
vt 0.406116 0.899211
vt 0.406116 0.999013
vt 0.306313 0.999013
vt 0.204538 0.899211
vt 0.304340 0.899211
vt 0.304340 0.999014
vt 0.204538 0.999014
vt 0.102762 0.899209
vt 0.202565 0.899209
vt 0.202565 0.999012
vt 0.102762 0.999012
vt 0.100790 0.100789
vt 0.000986 0.100789
vt 0.000986 0.000986
vt 0.100790 0.000986
vt 0.100790 0.999012
vt 0.000987 0.999012
vt 0.000987 0.899210
vt 0.100790 0.899210
vt 0.100624 0.100624
vt 0.100624 0.000781
vt 0.899375 0.000780
vt 0.899375 0.100624
vt 0.204538 0.100789
vt 0.304340 0.100789
vt 0.102762 0.000986
vt 0.202565 0.000986
vt 0.202565 0.100789
vt 0.102762 0.100789
vt 0.100593 0.000740
vt 0.899408 0.000740
vt 0.899408 0.100592
vt 0.100625 0.999219
vt 0.100625 0.899376
vt 0.899374 0.899376
vt 0.899374 0.999220
vt 0.204538 0.000986
vt 0.304340 0.000986
vt 0.306313 0.000986
vt 0.406116 0.000986
vt 0.406116 0.100789
vt 0.306313 0.100789
vt 0.000781 0.899376
vt 0.000780 0.100625
vt 0.999219 0.100624
vt 0.999219 0.899376
vt 0.999219 0.999220
vt 0.000781 0.999219
vt 0.999219 0.000780
vt 0.000780 0.000781
vt 0.900148 0.898668
vt 0.101332 0.898668
vt 0.101332 0.000000
vt 0.900148 0.000000
vt 0.101332 0.000000
vt 0.900148 0.000000
vt 0.900148 0.898668
vt 0.101332 0.898668
vt 0.900148 0.898668
vt 0.900148 0.998520
vt 0.101334 0.998520
vt 0.101334 0.898668
vt 0.900148 0.000001
vt 0.900148 0.099853
vt 0.101334 0.099853
vt 0.101334 0.000000
vt 1.000000 0.099853
vt 1.000000 0.898668
vt 0.998959 0.110995
vt 0.998959 0.221991
vt 0.000000 0.221991
vt 0.000000 0.110996
vt 1.000000 0.729693
vt 1.000000 0.840689
vt 0.001041 0.840688
vt 0.001041 0.729694
vt 0.001560 0.110938
vt 0.001560 0.000000
vt 1.000000 0.000000
vt 1.000000 0.110937
vt 0.001560 0.335933
vt 0.001560 0.224995
vt 0.999998 0.224995
vt 0.999998 0.335933
vt 0.998959 0.000000
vt 0.000000 0.000000
vt 1.000000 0.432026
vt 1.000000 0.542964
vt 0.001560 0.542964
vt 0.001560 0.432026
vt 1.000000 0.507702
vt 1.000000 0.618697
vt 0.001041 0.618698
vt 0.001041 0.507703
vt 0.998959 0.332986
vt 0.000000 0.332987
vt 0.001560 0.223435
vt 0.001560 0.112498
vt 1.000000 0.112498
vt 1.000000 0.223435
vt 0.998959 0.443982
vt 0.000000 0.443982
vt 1.000000 0.319529
vt 1.000000 0.430466
vt 0.001560 0.430465
vt 0.001560 0.319529
vt 1.000000 0.396706
vt 0.001041 0.396707
vt 0.999999 0.207031
vt 0.999999 0.317969
vt 0.001560 0.317968
vt 0.001560 0.207031
vn 0.0000 -1.0000 0.0000
vn -0.0000 0.0000 1.0000
vn -1.0000 -0.0000 0.0000
vn 1.0000 0.0000 0.0000
vn 0.0000 -0.0000 -1.0000
vn 0.0000 1.0000 0.0000
usemtl Wall
s off
f 36/1/1 28/2/1 30/3/1 37/4/1
f 27/5/1 37/4/1 38/6/1 26/7/1
f 40/8/2 25/9/2 22/10/2 18/11/2
f 27/12/3 42/13/3 12/14/3 17/15/3
f 32/16/4 24/17/4 15/18/4 16/19/4
f 28/20/5 20/21/5 13/22/5 14/23/5
f 17/24/5 12/25/5 43/26/5 36/27/5
f 39/28/6 42/29/6 23/30/6 35/31/6
f 26/32/3 23/33/3 42/13/3 27/12/3
f 14/34/4 13/35/4 41/36/4 19/37/4
f 30/3/1 19/38/1 32/39/1 33/40/1
f 19/37/4 41/36/4 24/17/4 32/16/4
f 41/41/6 21/42/6 34/43/6 24/44/6
f 18/45/3 22/46/3 23/33/3 26/32/3
f 37/4/1 30/3/1 33/40/1 38/6/1
f 36/27/5 43/26/5 20/21/5 28/20/5
f 16/47/2 15/48/2 31/49/2 29/50/2
f 21/42/6 39/28/6 35/31/6 34/43/6
f 20/51/6 43/52/6 39/28/6 21/42/6
f 29/50/2 31/49/2 25/9/2 40/8/2
f 34/43/6 35/31/6 25/53/6 31/54/6
f 24/44/6 34/43/6 31/54/6 15/55/6
f 13/56/6 20/51/6 21/42/6 41/41/6
f 23/30/6 22/57/6 25/53/6 35/31/6
f 43/52/6 12/58/6 42/29/6 39/28/6
f 6/59/2 7/60/2 29/61/2 40/62/2
f 8/63/5 9/64/5 38/65/5 33/66/5
usemtl Floor
f 58/67/6 54/68/6 56/69/6 52/70/6
f 53/71/6 50/72/6 51/73/6 55/74/6
f 50/72/6 58/67/6 52/70/6 51/73/6
f 49/75/6 57/76/6 58/67/6 50/72/6
usemtl Beam
f 36/77/4 37/78/4 48/79/4 46/80/4
f 28/81/5 14/82/5 1/83/5 3/84/5
f 26/85/5 38/86/5 9/87/5 45/88/5
f 18/89/3 26/90/3 45/91/3 5/92/3
f 17/93/5 36/77/5 46/80/5 47/94/5
f 32/95/4 16/96/4 2/97/4 44/98/4
f 19/99/2 30/100/2 4/101/2 10/102/2
f 37/78/2 27/103/2 11/104/2 48/79/2
f 40/105/2 18/106/2 5/107/2 6/108/2
f 30/100/3 28/81/3 3/84/3 4/101/3
f 27/103/3 17/109/3 47/110/3 11/104/3
f 16/111/2 29/112/2 7/113/2 2/114/2
f 14/115/4 19/99/4 10/102/4 1/116/4
f 33/117/5 32/118/5 44/119/5 8/120/5
