# Blender v2.93.2 OBJ File: 'mapSet.blend'
# www.blender.org
mtllib wallSet_0.mtl
o wallSet_0_Cube.010
v 1.000000 -0.100000 -1.000000
v 1.000000 -0.100000 1.000000
v -1.000000 -0.100000 -1.000000
v -1.000000 -0.100000 1.000000
v 1.000000 -0.100000 -0.800000
v -1.000000 -0.100000 0.800000
v -1.000000 -0.100000 -0.800000
v 0.800001 -0.100000 -1.000000
v 0.800000 -0.100000 1.000000
v 0.800001 -0.100000 -0.800000
v 1.000000 -0.100000 0.800000
v 0.800000 -0.100000 0.800000
v -0.800001 -0.100000 -1.000000
v -0.800001 -0.100000 -0.800000
v -0.800001 -0.100000 0.800000
v -0.800001 -0.100000 1.000000
v -1.000000 2.000000 -1.000000
v 1.000000 2.000000 -1.000000
v 1.000000 1.800000 -1.000000
v 1.000000 2.000000 1.000000
v 1.000000 1.800000 1.000000
v -1.000000 1.800000 -1.000000
v -1.000000 1.800000 1.000000
v 1.000000 1.800000 -0.799999
v 0.800001 2.000000 -1.000000
v 0.800000 2.000000 -0.799999
v -1.000000 2.000000 1.000000
v -1.000000 2.000000 0.800000
v 1.000000 2.000000 0.800000
v -0.800001 2.000000 1.000000
v -1.000000 1.800000 0.800000
v -1.000000 1.800000 -0.799999
v 0.800001 1.800000 -1.000000
v 0.800000 1.800000 1.000000
v 0.800001 1.800000 -0.799999
v 0.800000 2.000000 1.000000
v 1.000000 1.800000 0.800000
v 0.800000 1.800000 0.800000
v 0.800001 2.000000 0.800000
v -0.800001 2.000000 0.800000
v -0.800001 1.800000 -1.000000
v -0.800001 1.800000 -0.799999
v -0.800001 1.800000 0.800000
v -0.800001 2.000000 -0.799999
v -0.800001 1.800000 1.000000
v 1.000000 2.000000 -0.799999
v -1.000000 2.000000 -0.799999
v -0.800001 2.000000 -1.000000
v 1.000000 -0.000000 -0.800000
v -1.000000 0.000000 0.800000
v -1.000000 -0.000000 -0.800000
v 0.800001 -0.000000 -1.000000
v 0.800000 0.000000 1.000000
v 0.800001 -0.000000 -0.800000
v 1.000000 0.000000 0.800000
v 0.800000 0.000000 0.800000
v -0.800001 -0.000000 -1.000000
v -0.800001 -0.000000 -0.800000
v -0.800001 0.000000 0.800000
v -0.800001 0.000000 1.000000
vt 0.000000 0.900000
vt 0.000000 0.100000
vt 0.100000 0.100000
vt 0.100000 0.900000
vt 0.100000 1.000000
vt 0.900000 0.900000
vt 0.900000 1.000000
vt 0.300001 0.900000
vt 0.400001 0.900000
vt 0.400001 1.000000
vt 0.300001 1.000000
vt 0.200001 0.900000
vt 0.300001 0.900000
vt 0.300001 1.000000
vt 0.200001 1.000000
vt 0.100001 0.899998
vt 0.200001 0.899998
vt 0.200001 0.999999
vt 0.100001 0.999999
vt 0.100001 0.100000
vt 0.000000 0.100000
vt 0.000000 0.000000
vt 0.100001 0.000000
vt 0.100001 0.999998
vt 0.000000 0.999998
vt 0.000000 0.899999
vt 0.100001 0.899999
vt 0.100000 0.100000
vt 0.100000 0.000001
vt 0.899999 0.000000
vt 0.899999 0.100000
vt 0.200001 0.100000
vt 0.300001 0.100000
vt 0.200001 0.000000
vt 0.200001 0.100000
vt 0.100001 0.100000
vt 0.100000 0.000001
vt 0.899999 0.000000
vt 0.899999 0.100000
vt 0.100001 0.999999
vt 0.100001 0.900000
vt 0.899998 0.900000
vt 0.899998 1.000000
vt 0.200001 0.000000
vt 0.300001 0.000000
vt 1.000000 0.100000
vt 1.000000 0.900000
vt 0.300001 0.000000
vt 0.400001 0.000000
vt 0.400001 0.100000
vt 0.300001 0.100000
vt 0.000000 0.900000
vt 0.000000 0.100001
vt 0.999999 0.100000
vt 0.999999 0.900000
vt 0.999999 1.000000
vt 0.000001 0.999999
vt 0.999999 0.000000
vt 0.000000 0.000001
vt 0.000000 0.900000
vt 0.100000 0.900000
vt 0.100001 0.100000
vt 0.000000 0.100000
vt 0.100000 1.000000
vt 0.899999 1.000000
vt 0.899999 0.900000
vt 0.899999 0.100000
vt 0.899999 0.000000
vt 0.100001 0.000000
vt 1.000000 0.900000
vt 1.000000 0.100000
vt 1.000000 0.372830
vt 1.000000 0.483941
vt 0.000000 0.483941
vt 0.000000 0.372830
vt 0.001041 0.667013
vt 0.001041 0.556018
vt 1.000000 0.556018
vt 1.000000 0.667013
vt 0.001041 0.332986
vt 0.001041 0.221991
vt 1.000000 0.221990
vt 1.000000 0.332985
vt 0.001041 0.443982
vt 1.000000 0.443982
vt 1.000000 0.261719
vt 0.000000 0.261719
vt 0.999480 0.333507
vt 0.999480 0.444503
vt 0.000520 0.444502
vt 0.000520 0.333507
vt 0.001040 0.889004
vt 0.001041 0.778009
vt 1.000000 0.778009
vt 1.000000 0.889004
vt 1.000000 0.595052
vt 0.000000 0.595052
vt 0.001041 0.110995
vt 0.001040 0.000000
vt 1.000000 0.000000
vt 1.000000 0.110995
vt 1.000000 0.706163
vt 0.000000 0.706163
vt 0.999479 0.000520
vt 0.999480 0.111516
vt 0.000520 0.111517
vt 0.000520 0.000522
vt 0.999480 0.222511
vt 0.000520 0.222512
vt 0.001041 1.000000
vt 1.000000 0.999999
vn 0.0000 -1.0000 0.0000
vn 0.0000 0.0000 1.0000
vn -1.0000 0.0000 0.0000
vn 1.0000 0.0000 0.0000
vn 0.0000 -0.0000 -1.0000
vn 0.0000 1.0000 0.0000
usemtl Wall
s off
f 41/1/1 33/2/1 35/3/1 42/4/1
f 32/5/1 42/4/1 43/6/1 31/7/1
f 45/8/2 30/9/2 27/10/2 23/11/2
f 32/12/3 47/13/3 17/14/3 22/15/3
f 37/16/4 29/17/4 20/18/4 21/19/4
f 33/20/5 25/21/5 18/22/5 19/23/5
f 22/24/5 17/25/5 48/26/5 41/27/5
f 44/28/6 47/29/6 28/30/6 40/31/6
f 31/32/3 28/33/3 47/13/3 32/12/3
f 19/23/4 18/34/4 46/35/4 24/36/4
f 35/3/1 24/37/1 37/38/1 38/39/1
f 24/36/4 46/35/4 29/17/4 37/16/4
f 46/40/6 26/41/6 39/42/6 29/43/6
f 23/44/3 27/45/3 28/33/3 31/32/3
f 42/4/1 35/3/1 38/39/1 43/6/1
f 41/27/5 48/26/5 25/21/5 33/20/5
f 43/6/1 38/39/1 34/46/1 45/47/1
f 21/48/2 20/49/2 36/50/2 34/51/2
f 26/41/6 44/28/6 40/31/6 39/42/6
f 25/52/6 48/53/6 44/28/6 26/41/6
f 34/51/2 36/50/2 30/9/2 45/8/2
f 39/42/6 40/31/6 30/54/6 36/55/6
f 29/43/6 39/42/6 36/55/6 20/56/6
f 18/57/6 25/52/6 26/41/6 46/40/6
f 28/30/6 27/58/6 30/54/6 40/31/6
f 48/53/6 17/59/6 47/29/6 44/28/6
usemtl Floor
f 57/60/6 58/61/6 54/62/6 52/63/6
f 51/64/6 50/65/6 59/66/6 58/61/6
f 54/62/6 56/67/6 55/68/6 49/69/6
f 58/61/6 59/66/6 56/67/6 54/62/6
f 59/66/6 60/70/6 53/71/6 56/67/6
usemtl Beam
f 41/72/4 42/73/4 14/74/4 13/75/4
f 33/76/5 19/77/5 1/78/5 8/79/5
f 31/80/5 43/81/5 15/82/5 6/83/5
f 23/84/3 31/80/3 6/83/3 4/85/3
f 22/86/5 41/72/5 13/75/5 3/87/5
f 37/88/4 21/89/4 2/90/4 11/91/4
f 24/92/2 35/93/2 10/94/2 5/95/2
f 42/73/2 32/96/2 7/97/2 14/74/2
f 45/98/2 23/99/2 4/100/2 16/101/2
f 35/93/3 33/76/3 8/79/3 10/94/3
f 32/96/3 22/102/3 3/103/3 7/97/3
f 43/81/4 45/98/4 16/101/4 15/82/4
f 21/104/2 34/105/2 9/106/2 2/107/2
f 34/105/3 38/108/3 12/109/3 9/106/3
f 19/110/4 24/92/4 5/95/4 1/111/4
f 38/108/5 37/88/5 11/91/5 12/109/5
