# Blender v3.0.1 OBJ File: 'mapSet.blend'
# www.blender.org
mtllib wallSet_1.mtl
o wallSet_1_Cube.028
v -1.000000 0.000000 1.000000
v -1.000000 0.000000 -1.000000
v -0.800001 0.000000 1.000000
v 1.000000 0.000000 -1.000000
v 0.800000 0.000000 -1.000000
v -0.800001 0.000000 -1.000000
v -1.000000 0.000000 0.800000
v 1.000000 0.000000 0.800000
v 1.000000 2.000000 1.000000
v -1.000000 2.000000 1.000000
v -1.000000 1.800000 1.000000
v -1.000000 2.000000 -1.000000
v -1.000000 1.800000 -1.000000
v 1.000000 1.800000 1.000000
v 1.000000 1.800000 -1.000000
v -1.000000 1.800000 0.800000
v -0.800001 2.000000 1.000000
v -0.800000 2.000000 0.800000
v 1.000000 2.000000 -1.000000
v 1.000000 2.000000 -0.800000
v -1.000000 2.000000 -0.799999
v 0.800000 2.000000 -1.000000
v 1.000000 1.800000 -0.800000
v 1.000000 1.800000 0.800000
v -0.800001 1.800000 1.000000
v -0.800001 1.800000 -1.000000
v -0.800001 2.000000 -1.000000
v -1.000000 1.800000 -0.799999
v -0.800001 2.000000 -0.799999
v 0.800000 2.000000 -0.799999
v 0.800001 1.800000 1.000000
v 0.800001 2.000000 0.800000
v 0.800000 1.800000 -1.000000
v -1.000000 2.000000 0.800000
v 1.000000 2.000000 0.800000
v 0.800001 2.000000 1.000000
v -1.000000 0.000000 -0.799999
v 1.000000 0.000000 -0.800000
v 0.800001 0.000000 1.000000
v 1.000000 0.000000 1.000000
vt 0.091518 0.091518
vt 0.817708 0.091518
vt 0.817708 0.908482
vt 0.091518 0.908482
vt 0.909226 0.907739
vt 0.183035 0.907738
vt 0.183035 0.090774
vt 0.909226 0.090774
vt 0.899374 0.899376
vt 0.100624 0.899375
vt 0.100624 0.100625
vt 0.899375 0.100625
vt 0.817707 0.908482
vt 0.091518 0.908482
vt 0.091518 0.091519
vt 0.817707 0.091518
vt 0.817709 0.908482
vt 0.091518 0.908482
vt 0.091518 0.091518
vt 0.817709 0.091518
vt 0.906250 0.000000
vt 1.000000 0.000000
vt 1.000000 0.125000
vt 0.906250 0.125000
vt 0.906250 0.546875
vt 1.000000 0.546875
vt 1.000000 0.703125
vt 0.906250 0.703125
vt 0.906250 0.406250
vt 1.000000 0.406250
vt 1.000000 0.546875
vt 0.906250 0.546875
vt 0.906250 0.265625
vt 1.000000 0.265625
vt 1.000000 0.406250
vt 0.906250 0.406250
vt 0.906250 0.406250
vt 1.000000 0.406250
vt 1.000000 0.546875
vt 0.906250 0.546875
vt -0.000000 0.406250
vt 0.000000 0.265625
vt 0.000000 0.859375
vt 0.000000 0.703125
vt 1.000000 0.703125
vt 1.000000 0.859375
vt 1.000000 0.546875
vt 0.000000 0.546875
vt 0.906250 0.703125
vt 1.000000 0.703125
vt 1.000000 0.859375
vt 0.906250 0.859375
vt 1.000000 0.546875
vt 1.000000 0.703125
vt 0.000000 0.703125
vt 0.000000 0.546875
vt 1.000000 0.859375
vt 0.000000 0.859375
vt 0.906250 0.859375
vt 1.000000 0.859375
vt 1.000000 1.000000
vt 0.906250 1.000000
vt 1.000000 0.703125
vt 1.000000 0.859375
vt 0.000000 0.859375
vt 0.000000 0.703125
vt 0.906250 0.125000
vt 1.000000 0.125000
vt 1.000000 0.265625
vt 0.906250 0.265625
vt 1.000000 1.000000
vt 0.000000 1.000000
vt 0.000000 0.875000
vt 1.000000 0.875000
vt 1.000000 0.390625
vt 1.000000 0.546875
vt 0.000000 0.546875
vt 0.000000 0.390625
vt 1.000000 0.703125
vt 0.000000 0.703125
vt 0.000000 1.000000
vt 0.000000 0.859375
vt 0.999218 0.100625
vt 0.899374 0.000780
vt 0.999218 0.000780
vt 0.999218 0.999220
vt 0.899374 0.999220
vt 0.999218 0.899376
vt 0.000780 0.100625
vt 0.000780 0.000781
vt 0.100624 0.000781
vt 0.100624 0.999219
vt 0.000780 0.999219
vt 0.000780 0.899375
vt 0.000000 0.546875
vt 0.000000 0.406250
vt 0.000000 0.546875
vt 0.000000 0.406250
vt 0.000000 0.125000
vt 0.000000 0.000000
vt 0.000000 0.703125
vt 0.000000 0.546875
vt 0.000000 0.265625
vt 0.000000 0.125000
vt 0.000000 0.859375
vt 0.000000 0.703125
vn -1.0000 -0.0000 0.0000
vn -0.0000 -0.0000 -1.0000
vn -0.0000 1.0000 -0.0000
vn 1.0000 0.0000 0.0000
vn 0.0000 0.0000 1.0000
usemtl Wall
s off
f 37/1/1 7/2/1 16/3/1 28/4/1
f 5/5/2 6/6/2 26/7/2 33/8/2
f 18/9/3 32/10/3 30/11/3 29/12/3
f 8/13/4 38/14/4 23/15/4 24/16/4
f 3/17/5 39/18/5 31/19/5 25/20/5
usemtl Beam
f 33/21/2 22/22/2 19/23/2 15/24/2
f 24/25/4 35/26/4 9/27/4 14/28/4
f 28/29/1 21/30/1 12/31/1 13/32/1
f 25/33/5 17/34/5 10/35/5 11/36/5
f 14/37/5 9/38/5 36/39/5 31/40/5
f 25/33/5 11/36/5 1/41/5 3/42/5
f 32/43/3 35/44/3 20/45/3 30/46/3
f 23/47/4 20/45/4 35/44/4 24/48/4
f 11/49/1 10/50/1 34/51/1 16/52/1
f 16/53/1 34/54/1 21/55/1 28/56/1
f 34/54/3 18/57/3 29/58/3 21/55/3
f 15/59/4 19/60/4 20/61/4 23/62/4
f 31/63/5 36/64/5 17/65/5 25/66/5
f 13/67/2 12/68/2 27/69/2 26/70/2
f 17/71/3 36/72/3 32/73/3 18/74/3
f 26/75/2 27/76/2 22/77/2 33/78/2
f 29/79/3 30/80/3 22/77/3 27/76/3
f 15/59/4 23/62/4 38/81/4 4/82/4
f 21/83/3 29/12/3 27/84/3 12/85/3
f 10/86/3 17/87/3 18/9/3 34/88/3
f 20/89/3 19/90/3 22/91/3 30/11/3
f 36/92/3 9/93/3 35/94/3 32/10/3
f 14/37/5 31/40/5 39/95/5 40/96/5
f 28/29/1 13/32/1 2/97/1 37/98/1
f 33/21/2 15/24/2 4/99/2 5/100/2
f 24/25/4 14/28/4 40/101/4 8/102/4
f 13/67/2 26/70/2 6/103/2 2/104/2
f 11/49/1 16/52/1 7/105/1 1/106/1
