# Blender v2.93.2 OBJ File: 'mapSet.blend'
# www.blender.org
mtllib wallSet_12.mtl
o wallSet_12_Cube.005
v 1.000000 -0.100000 1.000000
v -1.000000 -0.100000 1.000000
v 1.000000 -0.100000 0.800001
v 0.800000 -0.100000 0.800001
v -1.000000 -0.100000 -1.000000
v -1.000000 -0.100000 -0.800000
v 0.800000 0.000000 -0.800000
v 1.000000 0.000000 -0.800000
v -1.000000 -0.100000 0.800001
v -0.800000 0.000001 -1.000000
v 0.799999 0.000000 -1.000000
v -0.800000 -0.100000 0.800001
v -0.800000 -0.100000 -0.800000
v -0.800000 0.000000 -0.800000
v -0.800000 0.000000 0.800001
v 0.800000 0.000000 0.800001
v 1.000000 0.000000 0.800001
v 0.799999 -0.100000 1.000000
v 0.799999 -0.100000 -1.000000
v 1.000000 2.000000 -1.000000
v 1.000000 2.000000 1.000000
v 1.000000 1.800000 1.000000
v -1.000000 2.000000 1.000000
v -1.000000 1.799999 1.000000
v 1.000000 1.799999 -1.000000
v -1.000000 1.800000 -1.000000
v 0.800000 1.800000 1.000000
v 1.000000 2.000000 0.800001
v 0.800000 2.000000 0.800001
v -1.000000 2.000000 -1.000000
v -0.800000 2.000000 -1.000000
v -0.799999 2.000000 1.000000
v -1.000000 2.000000 -0.800000
v -0.800000 1.800000 -1.000000
v 0.800000 1.799999 -1.000000
v 1.000000 1.800000 0.800001
v -1.000000 1.799999 0.800001
v 0.800000 1.800000 0.800001
v -1.000000 2.000000 0.800001
v -0.799999 1.799999 1.000001
v -0.799999 1.799999 0.800001
v -0.799999 2.000000 0.800001
v -0.800000 2.000000 -0.800000
v 1.000000 1.799999 -0.800000
v 0.800000 1.799999 -0.800000
v -0.800000 1.800000 -0.800000
v 0.800000 2.000000 -0.800001
v -1.000000 1.800000 -0.800000
v 0.800000 2.000000 1.000000
v 0.799999 2.000000 -1.000000
v 1.000000 2.000000 -0.800000
v -0.800000 -0.099999 1.000001
v -0.800000 -0.099999 -1.000000
v 1.000000 -0.100000 -0.800000
v 1.000000 -0.100000 -1.000000
v 0.800000 -0.100000 -0.800000
vt 0.112498 0.000000
vt 1.000000 0.000000
vt 1.000000 0.998440
vt 0.112498 0.998440
vt 0.001560 0.000000
vt 0.889062 0.000000
vt 0.889062 0.998439
vt 0.001560 0.998439
vt 0.000781 0.888282
vt 0.000780 0.000780
vt 0.111718 0.000780
vt 0.111718 0.888282
vt 0.406116 0.100789
vt 0.306313 0.100789
vt 0.306313 0.000986
vt 0.406116 0.000986
vt 0.000986 0.899210
vt 0.100789 0.899210
vt 0.100789 0.999013
vt 0.000986 0.999013
vt 0.304341 0.100789
vt 0.204538 0.100789
vt 0.204538 0.000986
vt 0.304341 0.000986
vt 0.202565 0.100789
vt 0.102762 0.100789
vt 0.102762 0.000986
vt 0.202565 0.000986
vt 0.202565 0.999013
vt 0.102762 0.999013
vt 0.102762 0.899211
vt 0.202565 0.899211
vt 0.899376 0.100624
vt 0.999220 0.100625
vt 0.999219 0.899376
vt 0.899376 0.899376
vt 0.000987 0.100789
vt 0.100789 0.100789
vt 0.304341 0.999013
vt 0.204538 0.999013
vt 0.204538 0.899210
vt 0.304341 0.899210
vt 0.000780 0.100625
vt 0.100624 0.100624
vt 0.100624 0.899376
vt 0.000780 0.899376
vt 0.000987 0.000986
vt 0.100790 0.000986
vt 0.999219 0.000780
vt 0.999219 0.888282
vt 0.406116 0.999014
vt 0.306313 0.999014
vt 0.306313 0.899211
vt 0.406116 0.899211
vt 0.100624 0.000780
vt 0.899376 0.000780
vt 0.899376 0.999220
vt 0.100624 0.999220
vt 0.000780 0.999220
vt 0.000780 0.000780
vt 0.999219 0.999220
vt 0.999219 0.000780
vt 0.001560 0.998440
vt 0.001561 0.000000
vt 0.999219 0.999220
vt 0.111718 0.999220
vt 1.000000 0.998439
vt 1.000000 0.000000
vt 0.887582 0.998529
vt 0.000000 0.998529
vt 0.000000 0.000000
vt 0.887582 0.000000
vt 1.000000 0.998529
vt 0.112419 0.998529
vt 0.112419 0.000000
vt 1.000000 0.000000
vt 0.999219 0.111718
vt 0.111718 0.111718
vt 0.111718 0.000780
vt 0.999219 0.000780
vt 0.000780 0.999220
vt 0.000780 0.111718
vt 0.111718 0.999220
vt 0.999219 0.999220
vt 1.000000 0.110995
vt 1.000000 0.221991
vt 0.001041 0.221990
vt 0.001041 0.110995
vt 0.999099 0.776526
vt 0.999099 0.887537
vt 0.000000 0.887536
vt 0.000000 0.776526
vt 0.000901 0.593566
vt 1.000000 0.593566
vt 1.000000 0.704577
vt 0.000901 0.704577
vt 1.000000 0.482555
vt 0.000901 0.482555
vt 1.000000 0.000000
vt 0.001041 0.000000
vt 1.000000 0.332986
vt 0.001041 0.332986
vt 1.000000 0.371544
vt 0.000901 0.371545
vt 0.999099 0.665515
vt 0.000000 0.665515
vt 1.000000 0.443982
vt 0.001041 0.443981
vt 0.999099 0.998548
vt 0.000000 0.998547
vn 0.0000 0.0000 1.0000
vn -1.0000 0.0000 0.0000
vn -0.0000 -1.0000 0.0000
vn 0.0000 0.0000 -1.0000
vn 1.0000 0.0000 0.0000
vn -0.0000 1.0000 0.0000
usemtl Wall
s off
f 52/1/1 18/2/1 27/3/1 40/4/1
f 6/5/2 9/6/2 37/7/2 48/8/2
f 44/9/3 36/10/3 38/11/3 45/12/3
f 48/13/2 33/14/2 30/15/2 26/16/2
f 35/17/4 50/18/4 20/19/4 25/20/4
f 40/21/1 32/22/1 23/23/1 24/24/1
f 36/25/5 28/26/5 21/27/5 22/28/5
f 25/29/5 20/30/5 51/31/5 44/32/5
f 47/33/6 50/34/6 31/35/6 43/36/6
f 34/37/4 31/38/4 50/18/4 35/17/4
f 22/39/1 21/40/1 49/41/1 27/42/1
f 27/42/1 49/41/1 32/22/1 40/21/1
f 49/43/6 29/44/6 42/45/6 32/46/6
f 26/47/4 30/48/4 31/38/4 34/37/4
f 45/12/3 38/11/3 41/49/3 46/50/3
f 44/32/5 51/31/5 28/26/5 36/25/5
f 24/51/2 23/52/2 39/53/2 37/54/2
f 29/44/6 47/33/6 43/36/6 42/45/6
f 28/55/6 51/56/6 47/33/6 29/44/6
f 37/54/2 39/53/2 33/14/2 48/13/2
f 42/45/6 43/36/6 33/57/6 39/58/6
f 32/46/6 42/45/6 39/58/6 23/59/6
f 21/60/6 28/55/6 29/44/6 49/43/6
f 31/35/6 30/61/6 33/57/6 43/36/6
f 51/56/6 20/62/6 50/34/6 47/33/6
f 40/4/1 24/63/1 2/64/1 52/1/1
f 45/12/3 46/50/3 34/65/3 35/66/3
f 24/67/2 37/7/2 9/6/2 2/68/2
f 12/69/5 13/70/5 46/71/5 41/72/5
f 4/73/4 12/74/4 41/75/4 38/76/4
usemtl Floor
f 14/77/6 7/78/6 11/79/6 10/80/6
f 17/81/6 8/82/6 7/78/6 16/83/6
f 16/83/6 7/78/6 14/77/6 15/84/6
usemtl Beam
f 44/85/1 45/86/1 56/87/1 54/88/1
f 36/89/5 22/90/5 1/91/5 3/92/5
f 53/93/5 34/94/5 46/95/5 13/96/5
f 26/97/4 34/94/4 53/93/4 5/98/4
f 25/99/5 44/85/5 54/88/5 55/100/5
f 56/87/2 45/86/2 35/101/2 19/102/2
f 48/103/2 26/97/2 5/98/2 6/104/2
f 38/105/4 36/89/4 3/92/4 4/106/4
f 35/101/4 25/107/4 55/108/4 19/102/4
f 22/90/1 27/109/1 18/110/1 1/91/1
