# Blender v2.93.2 OBJ File: 'mapSet.blend'
# www.blender.org
mtllib wallSet_7.mtl
o wallSet_7_Cube.027
v -1.000000 0.200000 -1.000000
v -1.000000 0.000000 -1.000000
v 1.000000 0.200000 -1.000000
v 1.000000 0.000000 -1.000000
v -1.000000 0.000000 1.000000
v 1.000000 0.000000 1.000000
v -0.800000 0.000000 -1.000000
v -1.000000 0.200000 -0.800001
v -0.800000 0.200000 -0.800000
v 1.000000 0.200000 1.000000
v 1.000000 0.200000 0.800001
v 0.800000 0.000000 1.000000
v -0.800000 0.000000 1.000000
v -1.000000 0.000000 -0.800000
v 1.000000 0.000000 -0.800000
v -0.800000 0.000000 -0.800001
v 1.000000 0.200000 -0.800001
v 0.800000 0.000000 -1.000000
v 0.800000 0.000000 -0.800001
v 0.800000 0.200000 -0.800001
v 0.800000 0.200000 0.800001
v -1.000000 0.000000 0.800001
v -0.800000 0.000000 0.800001
v 0.800000 0.000000 0.800001
v 1.000000 0.000000 0.800001
v -0.799999 0.200000 -1.000000
v -0.799999 0.200000 1.000000
v -1.000000 2.200000 1.000000
v -1.000000 2.200000 -1.000000
v -1.000000 2.000000 -1.000000
v 1.000000 2.200000 -1.000000
v 1.000000 2.000000 -1.000000
v -1.000000 2.000000 1.000000
v 1.000000 2.000000 1.000000
v -0.800000 2.000000 -1.000000
v -1.000000 2.200000 -0.800001
v -0.800000 2.200000 -0.800000
v 1.000000 2.200000 1.000000
v 0.800000 2.200000 1.000000
v 0.799999 2.200000 -1.000000
v 1.000000 2.200000 0.800001
v 0.800000 2.000000 1.000000
v -0.800000 2.000000 1.000000
v -1.000000 2.000000 -0.800000
v 1.000000 2.000000 -0.800000
v -0.800000 2.000000 -0.800000
v 1.000000 2.200000 -0.800001
v 0.800000 2.000000 -1.000000
v 0.800000 2.000000 -0.800001
v 0.800000 2.200000 -0.800001
v 0.800000 2.200000 0.800001
v -1.000000 2.000000 0.800001
v -0.800000 2.000000 0.800001
v 0.800000 2.000000 0.800001
v -0.800000 2.200000 0.800001
v 1.000000 2.000000 0.800001
v -0.799999 2.200000 -1.000000
v -0.799999 2.200000 1.000000
v -1.000000 2.200000 0.800001
v 0.800000 0.200000 -1.000000
v 0.800000 0.200000 1.000000
v -1.000000 0.200000 0.800001
v -1.000000 0.200000 1.000000
v -0.800000 0.200000 0.800001
vt 0.495313 0.983594
vt 0.507812 0.983594
vt 0.507812 0.983594
vt 0.495313 0.983594
vt 0.110938 0.001560
vt 0.998440 0.001560
vt 0.998440 1.000000
vt 0.110938 1.000000
vt 0.099852 0.000000
vt 0.898668 0.000000
vt 0.898668 0.898668
vt 0.099852 0.898668
vt 0.508586 0.635482
vt 0.445837 0.608069
vt 0.473249 0.545321
vt 0.535998 0.572733
vt 0.495313 0.746094
vt 0.495313 0.758594
vt 0.507812 0.758594
vt 0.507812 0.746094
vt 0.483812 0.009599
vt 0.527573 0.001175
vt 0.535998 0.044935
vt 0.492237 0.053360
vt 0.495313 0.996094
vt 0.507812 0.996094
vt 0.112418 0.000000
vt 1.000000 0.000000
vt 1.000000 0.110948
vt 0.112418 0.110948
vt 1.000000 0.998529
vt 0.112419 0.998529
vt 0.112419 0.000000
vt 1.000000 0.000000
vt 0.406117 0.100789
vt 0.306314 0.100789
vt 0.306314 0.000986
vt 0.406117 0.000986
vt 0.000986 0.899210
vt 0.100790 0.899210
vt 0.100790 0.999013
vt 0.000986 0.999013
vt 0.304341 0.100789
vt 0.204538 0.100789
vt 0.204538 0.000986
vt 0.304341 0.000986
vt 0.102762 0.899211
vt 0.202565 0.899211
vt 0.202565 0.999014
vt 0.102762 0.999014
vt 0.102762 0.000986
vt 0.202565 0.000986
vt 0.202565 0.100789
vt 0.102762 0.100789
vt 0.100624 0.899375
vt 0.000780 0.899375
vt 0.000780 0.100625
vt 0.100624 0.100625
vt 0.000987 0.100789
vt 0.100790 0.100789
vt 0.119920 0.121452
vt 0.089967 0.085423
vt 0.304341 0.999014
vt 0.204538 0.999014
vt 0.204538 0.899211
vt 0.304341 0.899211
vt 0.257812 0.758594
vt 0.270312 0.758594
vt 0.270312 0.983594
vt 0.257812 0.983594
vt 0.999218 0.899376
vt 0.899374 0.899376
vt 0.899375 0.100625
vt 0.999218 0.100625
vt 0.000987 0.000986
vt 0.100790 0.000986
vt 1.000000 0.998529
vt 0.112418 0.998529
vt 0.495313 0.983594
vt 0.495313 0.996094
vt 0.270312 0.996094
vt 0.406117 0.999014
vt 0.306314 0.999014
vt 0.306314 0.899211
vt 0.406117 0.899211
vt 0.899374 0.999220
vt 0.100624 0.999219
vt 0.100624 0.000781
vt 0.899374 0.000780
vt 0.998440 1.000000
vt 0.887502 1.000000
vt 0.887502 0.001560
vt 0.998440 0.001560
vt 0.999218 0.000780
vt 0.999218 0.999220
vt 0.000780 0.000781
vt 0.000780 0.999219
vt 0.000000 1.000000
vt 0.000000 0.001560
vt 0.059007 0.374914
vt 0.001175 0.401549
vt 0.000000 0.898668
vt 0.000000 0.000000
vt 0.495313 0.996094
vt 0.998520 0.898668
vt 0.998520 0.000000
vt 0.000000 0.000000
vt 0.887582 0.000000
vt 0.887582 0.998529
vt 0.000000 0.998529
vt 0.000000 0.001560
vt 0.000000 1.000000
vt 0.887581 0.998529
vt 0.000000 0.998529
vt 0.000000 0.000000
vt 0.887581 0.000000
vt 0.495313 0.758594
vt 0.507812 0.758594
vt 0.270312 0.983594
vt 0.270312 0.996094
vt 0.270312 0.996094
vt 0.270312 0.983594
vt 0.000780 0.899376
vt 0.000780 0.100625
vt 0.100624 0.100625
vt 0.100624 0.899376
vt 0.100624 0.999219
vt 0.899373 0.899376
vt 0.899373 0.999220
vt 0.204537 0.899211
vt 0.304340 0.899211
vt 0.304340 0.999014
vt 0.204537 0.999014
vt 0.000986 0.899209
vt 0.100789 0.899209
vt 0.100789 0.999012
vt 0.000986 0.999012
vt 0.899373 0.100624
vt 0.899373 0.000780
vt 0.999218 0.000780
vt 0.999218 0.100624
vt 0.102762 0.899211
vt 0.202565 0.899211
vt 0.202565 0.999014
vt 0.102762 0.999014
vt 0.306312 0.899211
vt 0.406115 0.899211
vt 0.406115 0.999014
vt 0.306312 0.999014
vt 0.306312 0.000986
vt 0.406115 0.000986
vt 0.406115 0.100789
vt 0.306313 0.100789
vt 0.999217 0.899376
vt 0.999218 0.999220
vt 0.000987 0.100789
vt 0.100789 0.100789
vt 0.000780 0.000782
vt 0.100624 0.000781
vt 0.102762 0.000986
vt 0.202565 0.000986
vt 0.202565 0.100789
vt 0.102762 0.100789
vt 0.000987 0.000986
vt 0.100789 0.000986
vt 0.204537 0.000986
vt 0.304340 0.000986
vt 0.304340 0.100789
vt 0.204537 0.100789
vt 0.112418 0.110948
vt 1.000000 0.110948
vt 0.112418 0.998529
vt 0.112418 0.000000
vt 1.000000 0.000000
vt 0.000780 0.999220
vt 0.000000 0.483557
vt 0.000000 0.372546
vt 0.999099 0.372546
vt 0.999099 0.483557
vt 0.999549 0.111462
vt 0.999549 0.222473
vt 0.000451 0.222472
vt 0.000451 0.111462
vt 0.000000 0.594568
vt 0.999099 0.594568
vt 0.999549 0.000451
vt 0.000451 0.000451
vt 0.000000 0.705579
vt 0.999099 0.705579
vt 0.999549 0.333484
vt 0.000451 0.333483
vn 1.0000 0.0000 0.0000
vn -0.0000 -0.0000 -1.0000
vn 0.0000 1.0000 -0.0000
vn 0.0000 -1.0000 0.0000
vn 0.0000 0.0000 1.0000
vn -1.0000 0.0000 -0.0000
usemtl Wall
s off
f 20/1/1 60/2/1 48/3/1 49/4/1
f 60/5/2 26/6/2 35/7/2 48/8/2
f 11/9/1 17/10/1 45/11/1 56/12/1
f 63/13/3 27/14/3 64/15/3 62/16/3
f 8/17/3 9/18/3 26/19/3 1/20/3
f 61/21/3 10/22/3 11/23/3 21/24/3
f 20/1/3 17/25/3 3/26/3 60/2/3
f 52/27/4 44/28/4 46/29/4 53/30/4
f 21/31/2 64/32/2 53/33/2 54/34/2
f 56/35/1 41/36/1 38/37/1 34/38/1
f 43/39/5 58/40/5 28/41/5 33/42/5
f 48/43/2 40/44/2 31/45/2 32/46/2
f 44/47/6 36/48/6 29/49/6 30/50/6
f 33/51/6 28/52/6 59/53/6 52/54/6
f 55/55/3 58/56/3 39/57/3 51/58/3
f 42/59/5 39/60/5 58/40/5 43/39/5
f 61/21/1 21/24/1 54/61/1 42/62/1
f 30/63/2 29/64/2 57/65/2 35/66/2
f 35/67/3 46/68/3 49/69/3 48/70/3
f 35/66/2 57/65/2 40/44/2 48/43/2
f 57/71/3 37/72/3 50/73/3 40/74/3
f 34/75/5 38/76/5 39/60/5 42/59/5
f 53/30/4 46/29/4 49/77/4 54/78/4
f 52/54/6 59/53/6 36/48/6 44/47/6
f 49/69/3 54/79/3 56/80/3 45/81/3
f 32/82/1 31/83/1 47/84/1 45/85/1
f 37/72/3 55/55/3 51/58/3 50/73/3
f 36/86/3 59/87/3 55/55/3 37/72/3
f 45/85/1 47/84/1 41/36/1 56/35/1
f 50/73/3 51/58/3 41/88/3 47/89/3
f 34/90/5 42/91/5 61/92/5 10/93/5
f 40/74/3 50/73/3 47/89/3 31/94/3
f 29/95/3 36/86/3 37/72/3 57/71/3
f 39/57/3 38/96/3 41/88/3 51/58/3
f 59/87/3 28/97/3 58/56/3 55/55/3
f 48/8/2 32/98/2 3/99/2 60/5/2
f 53/100/3 43/101/3 42/62/3 54/61/3
f 64/15/6 27/14/6 43/101/6 53/100/6
f 56/12/1 34/102/1 10/103/1 11/9/1
f 17/25/2 20/1/2 49/4/2 45/104/2
f 32/105/1 45/11/1 17/10/1 3/106/1
f 20/107/6 21/108/6 54/109/6 49/110/6
f 27/111/5 61/92/5 42/91/5 43/112/5
f 9/113/5 20/114/5 49/115/5 46/116/5
f 26/19/6 9/18/6 46/117/6 35/118/6
f 21/119/5 11/120/5 56/121/5 54/122/5
usemtl Floor
f 22/123/4 14/124/4 16/125/4 23/126/4
f 13/127/4 23/126/4 24/128/4 12/129/4
f 25/130/1 11/131/1 10/132/1 6/133/1
f 13/134/5 27/135/5 63/136/5 5/137/5
f 19/138/4 18/139/4 4/140/4 15/141/4
f 18/142/2 60/143/2 3/144/2 4/145/2
f 14/146/6 8/147/6 1/148/6 2/149/6
f 5/150/6 63/151/6 62/152/6 22/153/6
f 12/129/4 24/128/4 25/154/4 6/155/4
f 12/156/5 61/157/5 27/135/5 13/134/5
f 14/124/4 2/158/4 7/159/4 16/125/4
f 2/160/2 1/161/2 26/162/2 7/163/2
f 16/125/4 7/159/4 18/139/4 19/138/4
f 7/163/2 26/162/2 60/143/2 18/142/2
f 6/164/5 10/165/5 61/157/5 12/156/5
f 23/126/4 16/125/4 19/138/4 24/128/4
f 22/153/6 62/152/6 8/147/6 14/146/6
f 24/128/4 19/138/4 15/141/4 25/154/4
f 4/166/1 3/167/1 17/168/1 15/169/1
f 9/170/3 64/171/3 21/31/3 20/172/3
f 8/173/3 62/174/3 64/171/3 9/170/3
f 15/169/1 17/168/1 11/131/1 25/130/1
f 5/175/4 22/123/4 23/126/4 13/127/4
usemtl Beam
f 52/176/2 53/177/2 64/178/2 62/179/2
f 44/180/6 30/181/6 1/182/6 8/183/6
f 33/184/6 52/176/6 62/179/6 63/185/6
f 46/186/5 44/180/5 8/183/5 9/187/5
f 43/188/5 33/184/5 63/185/5 27/189/5
f 30/181/2 35/190/2 26/191/2 1/182/2
