# Blender v2.93.2 OBJ File: 'mapSet.blend'
# www.blender.org
mtllib wallSet_14.mtl
o wallSet_14_Cube.024
v 1.000000 -0.100000 -1.000000
v 1.000000 -0.100000 1.000000
v 0.800001 -0.100000 -1.000000
v 0.800000 -0.100000 -0.800000
v -1.000000 -0.100000 1.000000
v -0.800001 -0.100000 1.000000
v 0.800000 -0.100000 1.000000
v 0.800001 -0.100000 0.800000
v -0.800001 -0.100000 0.800000
v 1.000000 -0.100000 -0.799999
v -1.000000 -0.100000 -0.799999
v -1.000000 2.000000 -1.000000
v 1.000000 2.000000 -1.000000
v 1.000000 1.800000 -1.000000
v 1.000000 2.000000 1.000000
v 1.000000 1.800000 1.000000
v -1.000000 1.800000 -1.000000
v -1.000000 1.800000 1.000000
v 1.000000 1.800000 -0.800000
v 0.800001 2.000000 -1.000000
v 0.800000 2.000000 -0.800000
v -1.000000 2.000000 1.000000
v -1.000000 2.000000 0.799999
v 1.000000 2.000000 0.800000
v -0.800001 2.000000 1.000000
v -1.000000 1.800000 0.800000
v -1.000000 1.800000 -0.800000
v 0.800001 1.800000 -1.000000
v 0.800000 1.800000 1.000000
v 0.800001 1.800000 -0.800000
v 0.800000 2.000000 1.000000
v 1.000000 1.800000 0.800000
v 0.800000 1.800000 0.800000
v 0.800001 2.000000 0.800000
v -0.800001 2.000000 0.800000
v -0.800001 1.800000 -1.000000
v -0.800001 1.800000 -0.800000
v -0.800001 1.800000 0.800000
v -0.800001 2.000000 -0.800000
v -0.800001 1.800000 1.000000
v 1.000000 2.000000 -0.799999
v -1.000000 2.000000 -0.800000
v -0.800001 2.000000 -1.000000
v 1.000000 -0.100000 0.800000
v -1.000000 -0.100000 0.800000
v -0.800001 -0.100000 -1.000000
v -1.000000 -0.100000 -1.000000
v -0.800001 -0.100000 -0.800000
v 0.800001 0.000000 -1.000000
v 0.800000 0.000000 -0.800000
v 0.800001 0.000000 0.800000
v -0.800001 0.000000 0.800000
v -0.800001 0.000000 -1.000000
v -0.800001 0.000000 -0.800000
vt 0.112498 0.000000
vt 1.000000 0.000000
vt 1.000000 0.998440
vt 0.112498 0.998440
vt 0.898668 0.898668
vt 0.099852 0.898668
vt 0.099852 0.000000
vt 0.898668 0.000000
vt 0.112418 0.001471
vt 1.000000 0.001471
vt 1.000000 0.112419
vt 0.112418 0.112419
vt 0.001560 0.000780
vt 0.889062 0.000780
vt 0.889062 0.999220
vt 0.001560 0.999220
vt 0.306313 0.899211
vt 0.406116 0.899211
vt 0.406116 0.999013
vt 0.306313 0.999013
vt 0.204538 0.899211
vt 0.304340 0.899211
vt 0.304340 0.999014
vt 0.204538 0.999014
vt 0.102762 0.899209
vt 0.202565 0.899209
vt 0.202565 0.999012
vt 0.102762 0.999012
vt 0.100790 0.100789
vt 0.000986 0.100789
vt 0.000986 0.000986
vt 0.100790 0.000986
vt 0.100790 0.999012
vt 0.000987 0.999012
vt 0.000987 0.899210
vt 0.100790 0.899210
vt 0.100624 0.100624
vt 0.100624 0.000781
vt 0.899375 0.000780
vt 0.899375 0.100624
vt 0.204538 0.100789
vt 0.304340 0.100789
vt 0.102762 0.000986
vt 0.202565 0.000986
vt 0.202565 0.100789
vt 0.102762 0.100789
vt 0.100625 0.999219
vt 0.100625 0.899376
vt 0.899374 0.899376
vt 0.899374 0.999220
vt 0.204538 0.000986
vt 0.304340 0.000986
vt 1.000000 1.000000
vt 0.112418 1.000000
vt 0.306313 0.000986
vt 0.406116 0.000986
vt 0.406116 0.100789
vt 0.306313 0.100789
vt 0.000781 0.899376
vt 0.000780 0.100625
vt 0.999219 0.100624
vt 0.999219 0.899376
vt 0.998440 0.998440
vt 0.887502 0.998440
vt 0.887501 0.000000
vt 0.998440 0.000000
vt 0.999219 0.999220
vt 0.000781 0.999219
vt 0.999219 0.000780
vt 0.000780 0.000781
vt 0.001560 0.998440
vt 0.001561 0.000000
vt 0.998520 0.000000
vt 0.998520 0.898668
vt 0.000000 0.000000
vt 0.000001 0.898668
vt 0.000735 0.000736
vt 0.888318 0.000735
vt 0.888318 0.999265
vt 0.000736 0.999265
vt 0.000000 0.000000
vt 0.000000 0.998440
vt 0.112498 0.000000
vt 1.000000 0.000000
vt 1.000000 0.998440
vt 0.112498 0.998440
vt 0.112418 0.110948
vt 1.000000 0.110948
vt 1.000000 0.998529
vt 0.112418 0.998529
vt 0.112418 0.000000
vt 1.000000 0.000000
vt 0.000901 0.477015
vt 0.000901 0.366004
vt 1.000000 0.366004
vt 1.000000 0.477015
vt 0.000451 0.222473
vt 0.000451 0.111462
vt 0.999549 0.111462
vt 0.999549 0.222472
vt 0.000901 0.588026
vt 1.000000 0.588026
vt 0.000451 0.333484
vt 0.999549 0.333483
vt 0.000901 0.699037
vt 1.000000 0.699037
vt 0.000451 0.000451
vt 0.999549 0.000451
vn 1.0000 0.0000 0.0000
vn -0.0000 0.0000 1.0000
vn 0.0000 -1.0000 0.0000
vn -1.0000 0.0000 0.0000
vn 0.0000 -0.0000 -1.0000
vn 0.0000 1.0000 0.0000
usemtl Wall
s off
f 44/1/1 10/2/1 19/3/1 32/4/1
f 6/5/2 7/6/2 29/7/2 40/8/2
f 36/9/3 28/10/3 30/11/3 37/12/3
f 9/13/1 48/14/1 37/15/1 38/16/1
f 40/17/2 25/18/2 22/19/2 18/20/2
f 27/21/4 42/22/4 12/23/4 17/24/4
f 32/25/1 24/26/1 15/27/1 16/28/1
f 28/29/5 20/30/5 13/31/5 14/32/5
f 17/33/5 12/34/5 43/35/5 36/36/5
f 39/37/6 42/38/6 23/39/6 35/40/6
f 26/41/4 23/42/4 42/22/4 27/21/4
f 14/43/1 13/44/1 41/45/1 19/46/1
f 19/46/1 41/45/1 24/26/1 32/25/1
f 41/47/6 21/48/6 34/49/6 24/50/6
f 18/51/4 22/52/4 23/42/4 26/41/4
f 37/12/3 30/11/3 33/53/3 38/54/3
f 36/36/5 43/35/5 20/30/5 28/29/5
f 16/55/2 15/56/2 31/57/2 29/58/2
f 21/48/6 39/37/6 35/40/6 34/49/6
f 20/59/6 43/60/6 39/37/6 21/48/6
f 29/58/2 31/57/2 25/18/2 40/17/2
f 34/49/6 35/40/6 25/61/6 31/62/6
f 18/63/4 26/64/4 45/65/4 5/66/4
f 24/50/6 34/49/6 31/62/6 15/67/6
f 13/68/6 20/59/6 21/48/6 41/47/6
f 23/39/6 22/69/6 25/61/6 35/40/6
f 43/60/6 12/70/6 42/38/6 39/37/6
f 32/4/1 16/71/1 2/72/1 44/1/1
f 40/8/2 18/73/2 5/74/2 6/5/2
f 16/75/2 29/7/2 7/6/2 2/76/2
f 8/77/5 9/78/5 38/79/5 33/80/5
f 11/81/4 45/65/4 26/64/4 27/82/4
f 4/83/4 8/84/4 33/85/4 30/86/4
usemtl Floor
f 50/87/6 54/88/6 52/89/6 51/90/6
f 49/91/6 53/92/6 54/88/6 50/87/6
usemtl Beam
f 36/93/1 37/94/1 48/95/1 46/96/1
f 28/97/5 14/98/5 1/99/5 3/100/5
f 17/101/5 36/93/5 46/96/5 47/102/5
f 30/103/4 28/97/4 3/100/4 4/104/4
f 27/105/4 17/101/4 47/102/4 11/106/4
f 14/98/1 19/107/1 10/108/1 1/99/1
