# Blender v2.93.2 OBJ File: 'mapSet.blend'
# www.blender.org
mtllib wallSet_15.mtl
o wallSet_15_Cube.028
v -1.000000 0.000000 1.000000
v -1.000000 0.000000 -1.000000
v -0.800001 0.000000 1.000000
v 1.000000 0.000000 -1.000000
v 0.800000 0.000000 -1.000000
v -0.800001 0.000000 -1.000000
v -1.000000 0.000000 0.800000
v 1.000000 0.000000 0.800000
v 1.000000 2.000000 1.000000
v -1.000000 2.000000 1.000000
v -1.000000 1.800000 1.000000
v -1.000000 2.000000 -1.000000
v -1.000000 1.800000 -1.000000
v 1.000000 1.800000 1.000000
v 1.000000 1.800000 -1.000000
v -1.000000 1.800000 0.800000
v -0.800001 2.000000 1.000000
v -0.800000 2.000000 0.800000
v 1.000000 2.000000 -1.000000
v 1.000000 2.000000 -0.800000
v -1.000000 2.000000 -0.799999
v 0.800000 2.000000 -1.000000
v 1.000000 1.800000 -0.800000
v 1.000000 1.800000 0.800000
v -0.800001 1.800000 1.000000
v -0.800001 1.800000 -1.000000
v -0.800001 2.000000 -1.000000
v -1.000000 1.800000 -0.799999
v -0.800001 2.000000 -0.799999
v 0.800000 2.000000 -0.799999
v 0.800001 1.800000 1.000000
v 0.800001 2.000000 0.800000
v 0.800000 1.800000 -1.000000
v -1.000000 2.000000 0.800000
v 1.000000 2.000000 0.800000
v 0.800001 2.000000 1.000000
v -1.000000 0.000000 -0.799999
v 1.000000 0.000000 -0.800000
v 0.800001 0.000000 1.000000
v 1.000000 0.000000 1.000000
vt 0.091518 0.091518
vt 0.817708 0.091518
vt 0.817708 0.908482
vt 0.091518 0.908482
vt 0.909226 0.907739
vt 0.183035 0.907738
vt 0.183035 0.090774
vt 0.909226 0.090774
vt 0.909226 0.000000
vt 1.000000 0.000000
vt 1.000000 0.090774
vt 0.817707 0.091518
vt 0.817707 0.000744
vt 0.908481 0.000744
vt 0.908481 0.091518
vt 0.091518 0.999255
vt 0.000744 0.999255
vt 0.000744 0.908482
vt 0.817709 0.091518
vt 0.817709 0.000744
vt 0.908483 0.000744
vt 0.908483 0.091518
vt 0.000744 0.091518
vt 0.000744 0.000744
vt 0.091518 0.000744
vt 0.091518 0.091518
vt 0.908483 0.908482
vt 0.817709 0.908482
vt 0.100624 0.899375
vt 0.000780 0.899375
vt 0.000780 0.100625
vt 0.100624 0.100625
vt 0.091518 0.091519
vt 0.091518 0.000745
vt 0.908482 0.908482
vt 0.908482 0.999256
vt 0.817708 0.999256
vt 0.999218 0.899376
vt 0.899374 0.899376
vt 0.899375 0.100625
vt 0.999218 0.100625
vt 0.000744 0.091519
vt 0.000744 0.000745
vt 0.092261 0.090774
vt 0.092262 0.000000
vt 0.183035 0.000000
vt 0.899374 0.999220
vt 0.100624 0.999219
vt 0.100624 0.000781
vt 0.899374 0.000780
vt 0.091518 0.908482
vt 0.000744 0.908482
vt 0.999218 0.000780
vt 0.999218 0.999220
vt 0.000780 0.000781
vt 0.000780 0.999219
vt 0.091518 0.908482
vt 0.000744 0.908482
vt 0.000744 0.091518
vt 1.000000 0.907739
vt 0.908481 0.908482
vt 0.817707 0.908482
vt 0.092262 0.907738
vt 0.908482 0.091518
vn -1.0000 -0.0000 0.0000
vn -0.0000 -0.0000 -1.0000
vn 1.0000 0.0000 -0.0000
vn 0.0000 0.0000 1.0000
vn -0.0000 1.0000 -0.0000
usemtl Wall
s off
f 37/1/1 7/2/1 16/3/1 28/4/1
f 5/5/2 6/6/2 26/7/2 33/8/2
f 33/8/2 22/9/2 19/10/2 15/11/2
f 24/12/3 35/13/3 9/14/3 14/15/3
f 28/4/1 21/16/1 12/17/1 13/18/1
f 25/19/4 17/20/4 10/21/4 11/22/4
f 14/23/4 9/24/4 36/25/4 31/26/4
f 25/19/4 11/22/4 1/27/4 3/28/4
f 32/29/5 35/30/5 20/31/5 30/32/5
f 23/33/3 20/34/3 35/13/3 24/12/3
f 11/35/1 10/36/1 34/37/1 16/3/1
f 16/3/1 34/37/1 21/16/1 28/4/1
f 34/38/5 18/39/5 29/40/5 21/41/5
f 15/42/3 19/43/3 20/34/3 23/33/3
f 31/26/4 36/25/4 17/20/4 25/19/4
f 13/44/2 12/45/2 27/46/2 26/7/2
f 18/39/5 32/29/5 30/32/5 29/40/5
f 17/47/5 36/48/5 32/29/5 18/39/5
f 26/7/2 27/46/2 22/9/2 33/8/2
f 29/40/5 30/32/5 22/49/5 27/50/5
f 15/42/3 23/33/3 38/51/3 4/52/3
f 21/41/5 29/40/5 27/50/5 12/53/5
f 10/54/5 17/47/5 18/39/5 34/38/5
f 20/31/5 19/55/5 22/49/5 30/32/5
f 36/48/5 9/56/5 35/30/5 32/29/5
f 14/23/4 31/26/4 39/57/4 40/58/4
f 28/4/1 13/18/1 2/59/1 37/1/1
f 33/8/2 15/11/2 4/60/2 5/5/2
f 24/12/3 14/15/3 40/61/3 8/62/3
f 13/44/2 26/7/2 6/6/2 2/63/2
f 11/35/1 16/3/1 7/2/1 1/64/1
f 8/62/3 38/51/3 23/33/3 24/12/3
f 3/28/4 39/57/4 31/26/4 25/19/4
